<svg version="1" xmlns="http://www.w3.org/2000/svg" width="933.333" height="933.333" viewBox="0 0 700.000000 700.000000"><path d="M153.5 21.4C141.7 33.2 132 43.2 132 43.7c0 .4 29.5 30.3 65.5 66.3s65.5 65.8 65.5 66.1c0 .4-3.3.7-7.2.8-4 .1-11.3.4-16.3.6-23.1 1.1-59.9 3.2-67.5 4-2.5.2-8.1.7-12.5 1-21.2 1.6-61.7 5.6-80.5 8-1.9.2-6 .7-9 1-3 .3-7.1.8-9 1.1-1.9.2-5.1.7-7 .9-1.9.3-5.2.7-7.3 1-18.2 2.4-17.3 2.1-18.6 6.8-.6 2.3-1.7 7.1-2.5 10.7-.9 3.6-2.4 10.5-3.6 15.3-1.1 4.9-2.2 10.3-2.5 12-.3 1.8-.8 4.3-1 5.7-.3 1.4-.8 3.6-1 5-.3 1.4-.8 4.1-1.1 6-.3 1.9-.9 5.3-1.4 7.5-.5 2.2-1.8 10.1-3 17.5-1.9 12.7-2.3 15.2-3.5 24.7-.2 2.1-.6 5.4-.9 7.3-.6 4-1.2 9.9-2.1 18.5-.4 3.3-.8 7.6-1 9.5-.3 1.9-.7 7.8-1 13-.4 5.2-.8 10.5-1 11.8C-.1 382-.1 492.5 2.5 508c.2 1.4.6 7 .9 12.5.3 5.5.8 10.9 1 12 .2 1.1.7 5.8 1 10.5.4 4.7.9 9.4 1.1 10.5.3 1.1.7 4.2.9 7 .9 8.4 2.6 20.8 5.7 39.5 2.6 16.1 3 18.4 4.4 25 .3 1.4.7 3.6 1 5 .3 1.4 1.2 5.9 2 10s1.7 8.4 1.9 9.5c.2 1.1 1.8 7.9 3.6 15.2l3.1 13.1 3.7.7c2 .3 5.1.7 6.7.9 1.7.3 8.6 1.2 15.5 2.1 17 2.3 16.6 2.2 24 3 3.6.3 7.6.8 9 1 1.4.2 5.4.6 9 1 3.6.4 7.6.8 9 1 1.4.2 5.9.7 10 1 4.1.3 8.6.8 10 1 1.4.2 6.3.6 11 1s9.6.8 11 1c1.4.2 6.8.6 12 1s11.1.8 13 1c3 .3 13 1 29 2 2.5.2 10.4.6 17.5 1 7.2.3 15.7.8 19 1 39.6 2.7 170.8 2.7 222 0 4.4-.2 13.3-.7 19.7-1 12.6-.7 19.4-1.1 32.8-2 4.7-.4 11-.8 14-1 5.8-.4 19.4-1.5 24.5-2 1.7-.1 6.4-.5 10.5-.9s9.5-.9 12-1.1c2.5-.3 7-.7 10-1 11.6-1.1 20.8-2.1 28-3 1.9-.2 6-.7 9-1 3-.3 7.3-.8 9.5-1.2 2.2-.3 5.1-.7 6.5-.8 4.4-.5 14.4-1.7 16.1-2 .9-.2 3.8-.6 6.5-1 2.7-.3 5.8-.8 6.9-1 1.1-.2 2.5-.4 3.1-.4 1-.1 3.5-8.4 5.9-19.6 2.1-9.6 9.4-45.9 9.9-49 .4-2.2.8-5.1 1.1-6.5 2.2-14.3 2.7-17.8 3-19.9.3-1.3.7-4.5 1.1-7 .3-2.5.8-5.7 1-7.1.2-1.4.6-5 1-8 .3-3 .7-6.6.9-8 .2-1.4.7-5.7 1-9.5.4-3.9.8-8.1 1-9.5.2-1.4.7-6.8 1-12 .4-5.2.9-11.1 1.1-13 2.5-29.2 2.5-116.4 0-142-.2-1.9-.7-8.1-1.1-13.8-.3-5.6-.8-11-1-12-.1-.9-.6-4.9-.9-8.7-1.1-11.4-1.6-15.8-2.1-19-.3-1.7-.7-5-1-7.5-1.2-10.3-4.4-31.4-6.1-40.5-2.9-15.7-5.6-29.4-6.9-35.5-1.9-8.8-1.6-7.5-5-21.7l-2.6-11.1-6.7-1.1c-8.9-1.4-13.8-2.1-19.2-2.7-2.5-.3-5.6-.7-7-.9-1.4-.2-5.2-.7-8.5-1-3.3-.3-7.1-.8-8.5-1-1.4-.3-5.6-.7-9.3-1.1-3.7-.3-7.6-.7-8.6-.9-2.8-.5-10.9-1.4-18.6-2-3.8-.3-8.3-.7-10-1-1.6-.2-6.4-.7-10.5-1-4.1-.4-9.1-.8-11-1-3.3-.3-9.3-.8-26-2.1-4.1-.3-9.3-.7-11.5-.9-4.4-.4-29.1-1.8-34.2-1.9l-3.2-.1 4.2-4.3c2.3-2.4 27.5-27.6 55.9-56C566.7 89.8 590 66.1 590 65.7c0-.5-9.7-10.6-21.6-22.4l-21.5-21.5-76.5 76.3c-42.1 42-76.7 76.6-76.9 76.8-.2.2-10.1.3-22 .2l-21.5-.2-87.5-87.5L175-.1l-21.5 21.5zm256 242.1c34.7 1 49.6 1.7 69 3 8.9.7 16.7 1.2 27.5 2 4.7.3 10.3.8 12.5 1 2.2.3 6.5.7 9.5 1 12.2 1 18.7 1.6 22 2 1.9.2 6.4.6 10 1 3.6.3 7.6.8 9 1 1.4.3 5.2.7 8.5 1 3.3.3 6.9.8 8 1 1.1.2 2.7.4 3.6.4 1.1.1 2.1 2.2 3.3 6.8 6.8 26.4 8.5 34.5 12.1 55.8 2.7 16.2 3.7 23.5 5 39 .4 4.4.9 8.7 1 9.6 2.2 11.7 2.2 84.3 0 98-.2 1.3-.6 6.2-1 10.9-.7 9.4-.6 9-3.5 28-2.7 18-2.8 18.9-5.1 30.5-1.7 8.2-9.8 41.6-10.3 42.2 0 0-2.3.4-5.1.7-2.7.3-7 .9-9.5 1.2-5.4.6-9.6 1.1-17 1.8-12.9 1.3-16.7 1.7-20.5 2.1-2.2.3-6 .7-8.5 1-2.5.3-8 .7-12.2 1-4.2.3-9.2.7-11 1-1.8.2-8.2.7-14.3 1-6 .3-13 .8-15.5 1-4.1.3-23.9 1.4-36.5 2-50 2.3-130.9 2.3-179.5 0-24.4-1.1-33-1.6-38.2-2-3.2-.3-10.1-.7-15.5-1-5.4-.3-11.1-.8-12.8-1-1.6-.2-6.6-.7-11-1-9.4-.7-17.6-1.4-21.9-2-1.7-.2-6.7-.7-11.1-1-7.9-.7-10.1-.9-18-1.9-2.2-.3-6.7-.9-10-1.2-3.3-.4-6.9-.8-8-1-1.1-.1-2.7-.3-3.7-.3-1.3-.1-2.6-4.1-6.2-18.8-2.5-10.4-4.8-20.2-5.1-21.8-2.5-13.1-3.6-19.5-4.1-22.5-.3-1.9-.9-6-1.4-9-.9-5.6-1.1-7.4-3-23.5-4.7-41-4.5-94.4.6-135 .2-1.7.6-5.5.9-8.5.3-3 1-7.8 1.5-10.5.5-2.8 1.2-7 1.5-9.5.3-2.5.8-5.2 1-6 .2-.8.6-3.3 1-5.5.3-2.2.7-4.7 1-5.5.2-.8.6-2.6.9-4 .7-4.1 4.4-19.8 7.3-30.8 1.9-7.5 3-10.2 4.2-10.3.9 0 2.5-.2 3.6-.4s4.7-.7 8-1c3.3-.3 7.1-.8 8.5-1 1.4-.3 5.7-.8 9.5-1.1 3.9-.3 8.1-.8 9.5-.9 1.4-.1 5.9-.6 10-1 4.1-.3 8.9-.8 10.5-1 1.7-.2 7.1-.6 12-1 5-.3 10.4-.8 12-1 3.6-.5 18.3-1.5 44.5-3 17.5-1 30.3-1.5 59-2.1 15.7-.4 28.6-.7 28.7-.8.5-.4 60.7.2 82.8.9z"/></svg>